/* XPM */
static const char *image0001_xpm[] = {
/* columns rows colors chars-per-pixel */
"114 76 52 1",
"> c Black",
"e c #F7F7F4",
"k c #CFC8BB",
"= c #F9B838",
"4 c #FCFBFE",
"j c #D2CCC0",
"c c #C3BAAA",
"< c #FFFFFF",
". c #E1C68E",
"6 c #808080",
"u c #DFDBD2",
"7 c #7898B5",
"h c #D6D1C6",
"l c #C2B8A8",
"5 c #ACA899",
", c #000084",
"# c #EE9F31",
"s c #E3E0D9",
"w c #F7F6F3",
"O c #E4973C",
"o c #E68B2C",
"% c #FFC83C",
"g c #D7D2C7",
"1 c #FFFF00",
"8 c #B0C2D3",
"b c #0000C6",
"@ c #ECE9D8",
"t c #F1F0EB",
"f c #D8D3C9",
"v c #FBFBFD",
"+ c #DDC28D",
"a c #EAE9E3",
"2 c #FF0000",
"X c #EB972E",
"i c #EDEDE7",
"$ c #F9B938",
"x c #C0B7A6",
"q c #FCFCFA",
"0 c #FCFCFB",
": c #FCFCFE",
"* c #DDA153",
"- c #FFC73C",
"z c #C1B8A7",
"9 c #FDFDFB",
"  c #F1EFDF",
"3 c #7F9DB9",
"p c #ECEBE6",
"r c #F6F6F4",
"& c #FBBE39",
"d c #DBD6CC",
"y c #E5E1DA",
"; c #919B9C",
/* pixels */
" .XooooooooooooooooooooooooooooooooooooooooooooooooooooooooooooooooooooooO+ @@@@@@@@@@@@@@@@@@@@@@@@@@@@@@@@@@@@@@",
".#$%%%%%%%%%%%%%%%%%%%%%%%%%%%%%%%%%%%%%%%%%%%%%%%%%%%%%%%%%%%%%%%%%%%%%%&#.@@@@@@@@@@@@@@@@@@@@@@@@@@@@@@@@@@@@@@",
"*=------------------------------------------------------------------------=*@@@@@@@@@@@@@@@@@@@@@@@@@@@@@@@@@@@@@@",
";::::::::::::::::::::::::::::::::::::::::::::::::::::::::::::::::::::::::::;@@@@@@@@@@@@@@@@@@@@@@@@@@@@@@@@@@@@@@",
";::::::::::::::::::::::::::::::::::::::::::::::::::::::::::::::::::::::::::;@@@@@@@@@@@@@@@@@@@@@@@@@@@@@@@@@@@@@@",
";:::::::::::>>>>>>>::::::::::::::::::::::::::::::::::::::::::::::::::::::::;@@@@@@@@@@@@@@@@@@@@@@@@@@@@@@@@@@@@@@",
";:::::::::::>,,,,,>::::::::::::>>>>>:::::::::::>:::::::::::::::::::::::::::;@@@@@@@@@@@@@@@@@@@@@@@@@@@@@@@@@@@@@@",
";:::::::::::><,,,,>::::::::::::>::::>::::::::::::::::::::::::>:::::::::::::;@@@@@@@@@@@@@@@@@@@@@@@@@@@@@@@@@@@@@@",
";:::::::::::><,,,>>>>>>>:::::::>::::>::::::::::::::::::::::::>:::::::::::::;@@@@@@@@@@@@@@@@@@@@@@@@@@@@@@@@@@@@@@",
";:::::::>>>>><,,,>11111>:::::::>::::>:>>::>>>::>::>>>:::>>>::>>::>>::::::::;@@@@@@@@@@@@@@@@@@@@@@@@@@@@@@@@@@@@@@",
";:::::::>222>,,,,><1111>:::::::>>>>>::>::>:::>:>:>:::>:>:::>:>::>::>:::::::;@@@@@@@@@@@@@@@@@@@@@@@@@@@@@@@@@@@@@@",
";:::::::><22>>>>>><1111>:::::::>::::::>::>:::>:>:>>>>>:>:::::>:::>:::::::::;@@@@@@@@@@@@@@@@@@@@@@@@@@@@@@@@@@@@@@",
";:::::::><2222>::><1111>:::::::>::::::>::>:::>:>:>:::::>:::::>::::>::::::::;@@@@@@@@@@@@@@@@@@@@@@@@@@@@@@@@@@@@@@",
";:::::::><2222>::>11111>:::::::>::::::>::>:::>:>:>:::>:>:::>:>::>::>:::::::;@@@@@@@@@@@@@@@@@@@@@@@@@@@@@@@@@@@@@@",
";:::::::>22222>::>>>>>>>:::::::>::::::>:::>>>::>::>>>:::>>>:::>::>>::::::::;@@@@@@@@@@@@@@@@@@@@@@@@@@@@@@@@@@@@@@",
";:::::::>>>>>>>::::::::::::::::::::::::::::::::>:::::::::::::::::::::::::::;@@@@@@@@@@@@@@@@@@@@@@@@@@@@@@@@@@@@@@",
";::::::::::::::::::::::::::::::::::::::::::::::>:::::::::::::::::::::::::::;@@@@@@@@@@@@@@@@@@@@@@@@@@@@@@@@@@@@@@",
";::::::::::::::::::::::::::::::::::::::::::::::::::::::::::::::::::::::::::;@@@@@@@@@@@@@@@@@@@@@@@@@@@@@@@@@@@@@@",
";::::::::::::::::::::::::::::::::::::::::::::::::::::::::::::::::::::::::::;@@@@@@@@@@@@@@@@@@@@@@@@@@@@@@@@@@@@@@",
";::::::::::::::::::::::::::::::::::::::::::::::::::::::::::::::::::::::::::;@@@@@@@@@@@@@@@@@@@@@@@@@@@@@@@@@@@@@@",
";::::::::::::::::::::::::::::::::::::::::::::::::::::::::::::::::::::::::::;@@@@@@@@@@@@@@@@@@@@@@@@@@@@@@@@@@@@@@",
";::::::::::::::::::::::::::::::::::::::::::::::::::::::::::::::::::::::::::;;;;;;;;;;;;;;;;;;;;;;;;;;;;;;;;;;;;;;;",
";:::::::::::::::::::::::::::::::::::::::::::::::::::::::::::::::::::::::::::::::::::::::::::::::::::::::::::::::::",
";:::33333333333333333333333333333333333333333333333333333333333333333333333333333333333333333333333333333333333333",
";:::3<<<<<<<<<<<<<<<<<<<<<<<<<<<<<<<<<<<<<<<<<<<<<<<<<<<<<<<<<<<<<<<<<<<<<<<<<<<<<<<<<<<<<<<<<<<<<<<<<<<<<<<<<<<<<",
";:::3<<<<<<<<<<<<<<<<<<<<<<<<<<<<<<<<<<<<<<<<<<<<<<<<<<<<<<<<<<<<<<<<<<<<<<<<<<<<<<<<<<<<<<<<<<<<<<<<<<<<<<<<<<<<<",
";:::3<<<<<<<<<<<<<<<<<<<<<<<<<<<<<<<<<<<<<<<<<<<<<<<<<<<<<<<<<<<<<<<<<<<<<<<<<<<<<<<<<<<<<<<<<<<<<<<<<<<<<<<<<<<<<",
";:::3<<<<<<<<<<<<<<<<<<<<<<<<<<<<<<<<<<<<<<<<<<<<<<<<<<<<<<<<<<<<<<<<<<<<<<<<<<<<<<<<<<<<<<<<<<<<<<<<<<<<<<<<<<<<<",
";:::3<><<<<<<<<<<<><<<<<<<<<<<<<<<<<<<<<<<<<<<<<<<<<<<<<<<<<<<<<<<<<<<<<<<<<<<<<<<<<<<<<<<<<<<<<<<<<<<<<<<<<<<<<<<",
";:::3<<><<<<<<<<<<<<<<<<<<<<<<<<><<<<<<<<<<<<<<<<<<<<<<<<<<<<<<<<<<<<<<<<<<<<<<<<<<<<<<<<<<<<<<<<<<<<<<<<<<<<<<<<<",
";:::3<<><<<<<<<<<<<<<<<<<<<<<<<<><<<<<<<<<<<<<<<<<<<<<<<<<<<<<<<<<<<<<<<<<<<<<<<<<<<<<<<<<<<<<<<<<<<<<<<<<<<<<<<<<",
";:::3<<><>><<>>><<><<>>><<<>>><<>><<>><<<<<<<<<<<<<<<<<<<<<<<<<<<<<<<<<<<<<<<<<<<<<<<<<<<<<<<<<<<<<<<<<<<<<<<<<<<<",
";:::3<><<><<><<<><><><<<><><<<><><<><<><<<<<<<<<<<<<<<<<<<<<<<<<<<<<<<<<<<<<<<<<<<<<<<<<<<<<<<<<<<<<<<<<<<<<<<<<<<",
";:::3<<<<><<><<<><><>>>>><><<<<<><<<><<<<<<<<<<<<<<<<<<<<<<<<<<<<<<<<<<<<<<<<<<<<<<<<<<<<<<<<<<<<<<<<<<<<<<<<<<<<<",
";:::3<<<<><<><<<><><><<<<<><<<<<><<<<><<<<<<<<<<<<<<<<<<<<<<<<<<<<<<<<<<<<<<<<<<<<<<<<<<<<<<<<<<<<<<<<<<<<<<<<<<<<",
";:::3<<<<><<><<<><><><<<><><<<><><<><<><<<<<<<<<<<<<<<<<<<<<<<<<<<<<<<<<<<<<<<<<<<<<<<<<<<<<<<<<<<<<<<<<<<<<<<<<<<",
";:::3<<<<><<<>>><<><<>>><<<>>><<<><<>><<<<<<<<<<<<<<<<<<<<<<<<<<<<<<<<<<<<<<<<<<<<<<<<<<<<<<<<<<<<<<<<<<<<<<<<<<<<",
";:::3<<<<<<<<<<<<<><<<<<<<<<<<<<<<<<<<<<<<<<<<<<<<<<<<<<<<<<<<<<<<<<<<<<<<<<<<<<<<<<<<<<<<<<<<<<<<<<<<<<<<<<<<<<<<",
";:::3<<<<<<<<<<<<<><<<<<<<<<<<<<<<<<<<<<<<<<<<<<<<<<<<<<<<<<<<<<<<<<<<<<<<<<<<<<<<<<<<<<<<<<<<<<<<<<<<<<<<<<<<<<<<",
";:::3<<<<<<<<<<<<<<<<<<<<<<<<<<<<<<<<<<<<<<<<<<<<<<<<<<<<<<<<<<<<<<<<<<<<<<<<<<<<<<<<<<<<<<<<<<<<<<<<<<<<<<<<<<<<<",
";:::3<<<<<<<<<<<<<<<<<<<<<<<<<<<<<<<<<<<<<<<<<<<<<<<<<<<<<<<<<<<<<<<<<<<<<<<<<<<<<<<<<<<<<<<<<<<<<<<<<<<<<<<<<<<<<",
";:::3<<<<<<<<<<<<<<<<<<<<<<<<<<<<<<<<<<<<<<<<<<<<<<<<<<<<<<<<<<<<<<<<<<<<<<<<<<<<<<<<<<<<<<<<<<<<<<<<<<<<<<<<<<<<<",
";:::3<<<<<<<<<<<<<<<<<<<<<<<<<<<<<<<<<<<<<<<<<<<<<<<<<<<<<<<<<<<<<<<<<<<<<<<<<<<<<<<<<<<<<<<<<<<<<<<<<<<<<<<<<<<<<",
";:::3<<<<<<<<<<<<<<<<<<<<<<<<<<<<<<<<<<<<<<<<<<<<<<<<<<<<<<<<<<<<<<<<<<<<<<<<<<<<<<<<<<<<<<<<<<<<<<<<<<<<<<<<<<<<<",
";:::3<>>>><<<<<<<<<<<<<>><<<<<<<<<<<<<<<<<<<<<<<<<<<<<<<<<<<<<<<<<<<<<<<<<<<<<<<<<<<<<<<<<<<<<<<<<<<<<<<<<<<<<<<<<",
";:::3<,,,><<<<<<<<<<<<<>><<<<<<<<<<<<<<<<<<<<<<<<<<<<<<<<<<<<<<<<<<<<<<<<<<<<<<<<<<<<<<<<<<<<<<<<<<<<<<<<<<<<<<<<<",
";:::3<,,,><<<<<<<<<<<<>>>><<<<<<<<<<<<<<<<<<<<<<<<<<<<<<<<<<<<<<<<<<<<<<<<<<<<<<<<<<<<<<<<<<<<<<<<<<<<<<<<<<<<<<<<",
";:::3<,,>>>>>>><<<<<<<>>>><<<<>>>><<>>>>>>><<<>>>><<<<<<<<<<<<<<<<<<<<<<<<<<<<<<<<<<<<<<<<<<<<<<<<<<<<<<<<<<<<<<<<",
";:::3<,,>11111><<<<<<>><<>><<>><<>><>><>><>><>><<>><<<<<<<<<<<<<<<<<<<<<<<<<<<<<<<<<<<<<<<<<<<<<<<<<<<<<<<<<<<<<<<",
";:::3<,,><1111><<<<<<>><<>><<>><<<<<>><>><>><>>>>>><<<<<<<<<<<<<<<<<<<<<<<<<<<<<<<<<<<<<<<<<<<<<<<<<<<<<<<<<<<<<<<",
";:::3<>>><1111><<<<<<>>>>>><<>><<<<<>><>><>><>><<<<<<<<<<<<<<<<<<<<<<<<<<<<<<<<<<<<<<<<<<<<<<<<<<<<<<<<<<<<<<<<<<<",
";:::3<<<><1111><<<<<>><<<<>><>><<>><>><>><>><>><<>><<<<<<<<<<<<<<<<<<<<<<<<<<<<<<<<<<<<<<<<<<<<<<<<<<<<<<<<<<<<<<<",
";:::3<<<>11111><<<<<>><<<<>><<>>>><<>><>><>><<>>>><<<<<<<<<<<<<<<<<<<<<<<<<<<<<<<<<<<<<<<<<<<<<<<<<<<<<<<<<<<<<<<<",
";:443<<<>>>>>>><<<<<<<<<<<<<<<<<<<<<<<<<<<<<<<<<<<<<<<<<<<<<<<<<<<<<<<<<<<<<<<<<<<<<<<<<<<<<<<<<<<<<<<<<<<<<<<<<<<",
";:443<<<<<<<<<<<<<<<<<<<<<<<<<<<<<<<<<<<<<<<<<<<<<<<<<<<<<<<<<<<<<<<<<<<<<<<<<<<<<<<<<<<<<<<<<<<<<<<<<<<<<<<<<<<<<",
";:443<<<<<<<<<<<<<<<<<<<<<<<<<<<<<<<<<<<<<<<<<<<<<<<<<<<<<<<<<<<<<<<<<<<<<<<<<<<<<<<<<<<<<<<<<<<<<<<<<<<<<<<<<<<<<",
";:443<<<<<<<<<<<<<<<<<<<<<<<<<<<<<<<<<<<<<<<<<<<<<<<<<<<<<<<<<<<<<<<<<<<<<<<<<<<<<<<<<<<<<<<<<<<<<<<<<<<<<<<<<<<<<",
";:443<<5<<<<<<<<<<<<<<<<<<<<<<<<<<<<<<<<<<<<<<<<<<<<<<<<<<<<<<<<<<<<<<<<<<<<<<<<<<<<<<<<<<<<<<<<<<<<<<<<<<<<<<<<<<",
";:443<<<<<<<<<<<<<<<<66666<<<<<<<<<<<<<<<<<<<<<<<<<<<<<<<<<<<<<<<<<<<<<<<<<<<<<<<<<<<<<<<<<<<<<<<<<<<<<<<<<<<<<<<<",
";:443<<5<<<<<<<<<<<<61<1<16<<<<<<<<<<<<<<<<<<<<<<<<<<<<<<<<<<<<<<<<<<<<<<<<<<<<<<<<<<<<<<<<<<<<<<<<<<<<<<<<<<<<<<<",
";:443<<<<<<<<<<<<<<61<1<1<1666666<<<<<<<>>>><<<<><<<<<<<><<<<<<<<<<<<<<<<<<<<<<<<<<<<<<<<<<<<<<<<<<<<<<<<<<<<<<<<<",
";:443<777778<<<<<<<6<<<<<<<<<<<<6><<<<<<><<<><<<<<<<<<<<><<<<<<<<<<<<<<<<<<<<<<<<<<<<<<<<<<<<<<<<<<<<<<<<<<<<<<<<<",
";:443<<<<<<7<<<<<<<6<1<1<1<1<1<16><<<<<<><<<<><<<<<<<<<<><<<<<<<<<<<<<<<<<<<<<<<<<<<<<<<<<<<<<<<<<<<<<<<<<<<<<<<<<",
";:443<990qw7<<<<<<<6<<1<1<1<1<1<6><<<<<<><<<<><<><<>>><<><<>>><<<>>>><<>><<<<<<<<<<<<<<<<<<<<<<<<<<<<<<<<<<<<<<<<<",
";:443<eerty7<<<<<<<6<1<1<1<1<1<16><<<<<<><<<<><<><<<<<><><><<<><><<<><><<><<<<<<<<<<<<<<<<<<<<<<<<<<<<<<<<<<<<<<<<",
";:443<>>>>u7<5<5<5<6<<1<1<1<1<1<6><<<<<<><<<<><<><<>>>><><><<<><><<<><<><<<<<<<<<<<<<<<<<<<<<<<<<<<<<<<<<<<<<<<<<<",
";:443<ipasd7<<<<<<<6<1<1<1<1<1<16><<<<<<><<<<><<><><<<><><><<<><><<<><<<><<<<<<<<<<<<<<<<<<<<<<<<<<<<<<<<<<<<<<<<<",
";:443<fghjk7<<<<<<<6<<1<1<1<1<1<6><<<<<<><<<><<<><><<<><><><<<><><<<><><<><<<<<<<<<<<<<<<<<<<<<<<<<<<<<<<<<<<<<<<<",
";:443<lzzxc7<<<<<<<6<1<1<1<1<1<16><<<<<<>>>><<<<><<>>>><><<>>><<<>>>><<>><<<<<<<<<<<<<<<<<<<<<<<<<<<<<<<<<<<<<<<<<",
";:vv3<777778<<<<<<<66666666666666><<<<<<<<<<<<<<<<<<<<<<<<<<<<<<<<<<><<<<<<<<<<<<<<<<<<<<<<<<<<<<<<<<<<<<<<<<<<<<<",
";:vv3<<<<<<<<<<<<<<<>>>>>>>>>>>>>><<<<<<<<<<<<<<<<<<<<<<<<<<<<<<>>>><<<<<<<<<<<<<<<<<<<<<<<<<<<<<<<<<<<<<<<<<<<<<<",
";:vv3<<5<<<<<<<<<<<<<<<<<<<<<<<<<<<<<<<<<<<<<<<<<<<<<<<<<<<<<<<<<<<<<<<<<<<<<<<<<<<<<<<<<<<<<<<<<<<<<<<<<<<<<<<<<<",
";:vv3<<<<<<<<<<<<<<<<<<<<<<<<<<<<<<<<<<<<<<<<<<<<<<<<<<<<<<<<<<<<<<<<<<<<<<<<<<<<<<<<<<<<<<<<<<<<<<<<<<<<<<<<<<<<<",
";:vv3<<5<<<<<<<<<<<<<<<<<<5<<<<<<<<<<<<<<<<<<<<<<<<<<<<<@@@@@@@@@@@@@@@@@@@@@@@@@@@@@@@@@@@@@@@@@@@@@@@@@@@@@@@@@@",
";:vv3<<<<<<<<<<<<<<<<<<<<<<<<<<<<<<<<<bbbbbbbbbbbbbb<<<<@@@@@@@@@@@@@@@@@@@@@@@@@@@@@@@@@@@@@@@@@@@@@@@@@@@@@@@@@@",
";:vv3<<5<<<<<<<<<<<<<<<<<<5<<<<<<<<<<bbbbbbbbbbbbbbbb<<<@@@@@@@@@@@@@@@@@@@@@@@@@@@@@@@@@@@@@@@@@@@@@@@@@@@@@@@@@@"
};
